<svg width="512" height="512" viewBox="0 0 512 512" fill="none" xmlns="http://www.w3.org/2000/svg">
  <!-- Background rounded square -->
  <rect x="0" y="0" width="512" height="512" rx="112" fill="#111115"/>
  <rect x="1" y="1" width="510" height="510" rx="111" fill="none" stroke="#222222" stroke-width="2"/>
  <!-- F1 Official Logo (white) -->
  <g transform="translate(46, 100) scale(3.5)">
    <path d="M89.9999375,30 L119.999937,0 L101.943687,0 L71.9443125,30 L89.9999375,30 Z M85.6986875,13.065 L49.3818125,13.065 C38.3136875,13.065 36.3768125,13.651875 31.6361875,18.3925 C27.2024375,22.82625 20.0005625,30 20.0005625,30 L35.7324375,30 L39.4855625,26.246875 C41.9530625,23.779375 43.2255625,23.52375 48.4068125,23.52375 L75.2405625,23.52375 L85.6986875,13.065 Z M31.1518125,16.253125 C27.8774375,19.3425 20.7530625,26.263125 16.9130625,30 L-6.25e-05,30 C-6.25e-05,30 13.5524375,16.486875 21.0849375,9.0725 C28.8455625,1.685 32.7143125,0 46.9486875,0 L98.7643125,0 L87.5449375,11.21875 L48.0011875,11.21875 C37.9993125,11.21875 35.7518125,11.911875 31.1518125,16.253125 Z" fill="#ffffff"/>
  </g>
  <!-- Speed bars -->
  <rect x="82" y="310" width="348" height="14" rx="7" fill="#e10600"/>
  <rect x="82" y="338" width="264" height="14" rx="7" fill="#e10600" opacity="0.6"/>
  <rect x="82" y="366" width="180" height="14" rx="7" fill="#e10600" opacity="0.3"/>
  <!-- SYNC text -->
  <text x="256" y="440" text-anchor="middle" font-size="36" fill="#555555" font-family="monospace" letter-spacing="18">SYNC</text>
</svg>
