<?xml version="1.0" encoding="UTF-8"?>
<svg version="1.1" viewBox="0 0 540 540" xmlns="http://www.w3.org/2000/svg" xmlns:cc="http://creativecommons.org/ns#" xmlns:dc="http://purl.org/dc/elements/1.1/" xmlns:rdf="http://www.w3.org/1999/02/22-rdf-syntax-ns#">
 <metadata>
  <rdf:RDF>
   <cc:Work rdf:about="">
    <dc:format>image/svg+xml</dc:format>
    <dc:type rdf:resource="http://purl.org/dc/dcmitype/StillImage"/>
    <dc:title/>
   </cc:Work>
  </rdf:RDF>
 </metadata>
 <path d="m270 0a270 270 0 0 0-270 270 270 270 0 0 0 270 270 270 270 0 0 0 270-270 270 270 0 0 0-270-270zm0 154.78a115.22 115.22 0 0 1 115.22 115.22 115.22 115.22 0 0 1-115.22 115.22 115.22 115.22 0 0 1-115.22-115.22 115.22 115.22 0 0 1 115.22-115.22z" fill="#333"/>
 <path d="m270 120a150 150 0 0 0-150 150 150 150 0 0 0 150 150 150 150 0 0 0 150-150 150 150 0 0 0-150-150zm0 34.777a115.22 115.22 0 0 1 115.22 115.22 115.22 115.22 0 0 1-115.22 115.22 115.22 115.22 0 0 1-115.22-115.22 115.22 115.22 0 0 1 115.22-115.22z" fill="#a8a8a8"/>
 <path d="m270 145a125 125 0 0 0-125 125 125 125 0 0 0 125 125 125 125 0 0 0 125-125 125 125 0 0 0-125-125zm-9 17.939v63.02a45 45 0 0 0-9.5996 3.127l-37.021-50.955a107.5 107.5 0 0 1 46.621-15.191zm18 0.01172a107.5 107.5 0 0 1 46.602 15.201l-36.998 50.922a45 45 0 0 0-9.6035-3.1621v-62.961zm61.209 25.719a107.5 107.5 0 0 1 28.787 39.699l-59.9 19.463a45 45 0 0 0-5.9297-8.1777l37.043-50.984zm-140.38 0.0625 37.004 50.932a45 45 0 0 0-5.9609 8.1621l-59.963-19.484a107.5 107.5 0 0 1 28.92-39.609zm70.168 51.268a30 30 0 0 1 30 30 30 30 0 0 1-30 30 30 30 0 0 1-30-30 30 30 0 0 1 30-30zm-104.55 5.4922 59.863 19.451a45 45 0 0 0-0.31055 5.0566 45 45 0 0 0 0.33984 5.0469l-59.877 19.455a107.5 107.5 0 0 1-2.9629-24.502 107.5 107.5 0 0 1 2.9473-24.508zm209.09 0.0039a107.5 107.5 0 0 1 2.9629 24.504 107.5 107.5 0 0 1-2.9473 24.51l-59.863-19.451a45 45 0 0 0 0.31055-5.0586 45 45 0 0 0-0.33984-5.0488l59.877-19.455zm-143.63 46.67a45 45 0 0 0 5.9258 8.1719l-37.043 50.986a107.5 107.5 0 0 1-28.781-39.695l59.898-19.463zm78.221 0.00976 59.965 19.484a107.5 107.5 0 0 1-28.918 39.607l-37.006-50.932a45 45 0 0 0 5.959-8.1602zm-20.521 18.738 37.021 50.955a107.5 107.5 0 0 1-46.623 15.191v-63.02a45 45 0 0 0 9.6016-3.127zm-37.215 0.00782a45 45 0 0 0 9.6133 3.166v62.961a107.5 107.5 0 0 1-46.609-15.205l36.996-50.922z" fill="#7f7f7f"/>
</svg>
